Coordinates
nRows=17
nColumns=24

# SIMM Motion File Header:
name Coordinates
datacolumns 24
datarows 17
otherdata 1
range 0.17999999999999999000 0.19600000000000001000
endheader
time	pelvis_tx	pelvis_ty	pelvis_tz	pelvis_tilt	pelvis_list	pelvis_rotation	hip_flexion_r	hip_adduction_r	hip_rotation_r	knee_angle_r	ankle_angle_r	subtalar_angle_r	mtp_angle_r	hip_flexion_l	hip_adduction_l	hip_rotation_l	knee_angle_l	ankle_angle_l	subtalar_angle_l	mtp_angle_l	lumbar_extension	lumbar_bending	lumbar_rotation
      0.17999999999999999000	      1.40396924933144170000	      0.85654993929010104000	     -0.23910899882129377000	     -4.26981712972140230000	     -5.94828031196585980000	      0.61367807939199637000	     18.83787517201849200000	      7.68927714073918180000	      2.92238007097550940000	    -22.22123879001437200000	      7.33719694246861740000	     -0.00000000000001001546	     -0.00000000000000584319	      5.55874614317393510000	    -11.69519622867472300000	     13.31253052300997600000	    -56.66772229847838800000	    -12.04816132382168600000	      0.00000000000000015358	      0.00000000000000136066	     -4.35443675131174680000	      3.21734180765245450000	      3.13135113919512080000
      0.18099999999999999000	      1.40547762753929310000	      0.85684817648624734000	     -0.23886094489439230000	     -4.26478504181110290000	     -5.89983886078596860000	      0.58477216427055778000	     18.64185080800819000000	      7.67517304291053120000	      3.06517980430963410000	    -22.07992919059826800000	      7.36744747334051290000	     -0.00000000000001024343	     -0.00000000000000603282	      5.75573015344730350000	    -11.63322427276758700000	     13.31355929235988200000	    -56.76616332505681600000	    -11.78483769193769100000	      0.00000000000000013748	      0.00000000000000141097	     -4.37136287238787080000	      3.13736757697164540000	      3.20106334664328380000
      0.18200000000000000000	      1.40698510807671440000	      0.85714416613389788000	     -0.23861256808239822000	     -4.26078594418663940000	     -5.85274129495675500000	      0.55502135353315041000	     18.44749792658646100000	      7.66284735294330590000	      3.20876673746769690000	    -21.93982163226350900000	      7.39826985487842670000	     -0.00000000000001046322	     -0.00000000000000621833	      5.95327688406337160000	    -11.57346712122100700000	     13.31158823092807500000	    -56.85989794444550700000	    -11.53730151178409500000	      0.00000000000000011596	      0.00000000000000147626	     -4.38706305600860260000	      3.05915288449216320000	      3.27096858075007280000
      0.18300000000000000000	      1.40849137464406350000	      0.85743711344603679000	     -0.23836376163722089000	     -4.25818322190556750000	     -5.80746293029231800000	      0.52412984737531831000	     18.25540322281510100000	      7.65292742927136780000	      3.35341557365890000000	    -21.80133562256719100000	      7.42988068585012500000	     -0.00000000000001067206	     -0.00000000000000639799	      6.15158304676075570000	    -11.51670790500377200000	     13.30555701847857400000	    -56.94725712106907900000	    -11.31113389009055000000	      0.00000000000000008719	      0.00000000000000156174	     -4.40110545682468410000	      2.98332094312602700000	      3.34113107708084510000
      0.18400000000000000000	      1.40999764121141260000	      0.85773006075817582000	     -0.23811495519204356000	     -4.25558049962449570000	     -5.76218456562788010000	      0.49323834121748633000	     18.06330851904374100000	      7.64300750559942890000	      3.49806440985010350000	    -21.66284961287087500000	      7.46149151682182230000	     -0.00000000000001088090	     -0.00000000000000657764	      6.34988920945813980000	    -11.45994868878653600000	     13.29952580602907200000	    -57.03461629769264400000	    -11.08496626839700600000	      0.00000000000000005841	      0.00000000000000164721	     -4.41514785764076660000	      2.90748900175989090000	      3.41129357341161740000
      0.18500000000000000000	      1.41150236230333230000	      0.85801810805994738000	     -0.23786809456688199000	     -4.25457117053452900000	     -5.71936456358445790000	      0.46145508091654847000	     17.87337155345713300000	      7.63586823941437220000	      3.64335357271490690000	    -21.52511951782185000000	      7.49783469614010740000	     -0.00000000000001107621	     -0.00000000000000666662	      6.54848946927903080000	    -11.40728635576137300000	     13.28711061513906500000	    -57.11033405738956500000	    -10.88759421558149600000	      0.00000000000000004180	      0.00000000000000172111	     -4.42711310616400500000	      2.83526304584157090000	      3.48052838927068780000
      0.18600000000000000000	      1.41300695324977640000	      0.85830574272870785000	     -0.23762139780047012000	     -4.25369602210566460000	     -5.67675158183179280000	      0.42959672542810168000	     17.68361629238497200000	      7.62896313417713840000	      3.78869665789898670000	    -21.38745307882938800000	      7.53457638954345920000	     -0.00000000000001127038	     -0.00000000000000674798	      6.74711449520704500000	    -11.35496902389363400000	     13.27415782533600600000	    -57.18507148591142200000	    -10.69264705606313400000	      0.00000000000000002622	      0.00000000000000179403	     -4.43890343636236560000	      2.76334075226724040000	      3.54968508456310960000
      0.18700000000000000000	      1.41451121397357520000	      0.85859151815268897000	     -0.23737690382951576000	     -4.25308164180969770000	     -5.63460274655675340000	      0.39791229468220013000	     17.49388155130338900000	      7.62226151532828220000	      3.93373158954040040000	    -21.24899954766205600000	      7.57390036540318160000	     -0.00000000000001146479	     -0.00000000000000681497	      6.94533354206144440000	    -11.30348550215970600000	     13.25898192676017300000	    -57.25496300147815300000	    -10.50285069634443700000	      0.00000000000000001213	      0.00000000000000186096	     -4.45022194895841940000	      2.69240814336116330000	      3.61777348005314490000
      0.18800000000000000000	      1.41601502301334570000	      0.85887475047073003000	     -0.23713542287883449000	     -4.25282394450412320000	     -5.59308877855548040000	      0.36646576109261247000	     17.30417487780629300000	      7.61583822854670430000	      4.07834502363962590000	    -21.10946941872363800000	      7.61675643016630130000	     -0.00000000000001165950	     -0.00000000000000686232	      7.14299728398497270000	    -11.25314247979829800000	     13.24076522302067900000	    -57.31822619668690100000	    -10.32009968628186600000	      0.00000000000000000010	      0.00000000000000191971	     -4.46089510158874970000	      2.62282924160899400000	      3.68440063730094150000
      0.18900000000000000000	      1.41751883205311650000	      0.85915798278877109000	     -0.23689394192815322000	     -4.25256624719854860000	     -5.55157481055420820000	      0.33501922750302482000	     17.11446820430920100000	      7.60941494176512730000	      4.22295845773885150000	    -20.96993928978522300000	      7.65961249492942110000	     -0.00000000000001185422	     -0.00000000000000690967	      7.34066102590850100000	    -11.20279945743689100000	     13.22254851928118500000	    -57.38148939189564100000	    -10.13734867621929700000	     -0.00000000000000001193	      0.00000000000000197845	     -4.47156825421907910000	      2.55325033985682470000	      3.75102779454873850000
      0.19000000000000000000	      1.41902250145637780000	      0.85943788445220803000	     -0.23665858694732470000	     -4.25231687139148470000	     -5.50992055852301380000	      0.30468244797873650000	     16.92364877761900400000	      7.60173909346574210000	      4.36617320015008750000	    -20.82722818988909800000	      7.70599181883354230000	     -0.00000000000001205668	     -0.00000000000000693250	      7.53693088342616410000	    -11.15242371994521900000	     13.20099189040395200000	    -57.43619264287040200000	     -9.95169216181711210000	     -0.00000000000000001002	      0.00000000000000200516	     -4.48182290447617420000	      2.48453824579914160000	      3.81469940306650200000
      0.19100000000000000000	      1.42052615910075900000	      0.85971750563908766000	     -0.23642374783834080000	     -4.25206819634314040000	     -5.46825449308381550000	      0.27443912155502159000	     16.73273564526975600000	      7.59395776615874850000	      4.50927015783849420000	    -20.68424921839139300000	      7.75266783864637520000	     -0.00000000000001225980	     -0.00000000000000695326	      7.73308336104530620000	    -11.10204522749147700000	     13.17915400429183800000	    -57.49017505545905500000	     -9.76579097303367580000	     -0.00000000000000000694	      0.00000000000000202917	     -4.49204231238039140000	      2.41589914617255190000	      3.87812212293284820000
      0.19200000000000000000	      1.42202993581167750000	      0.85999342064318318000	     -0.23619685025099296000	     -4.25160642461926490000	     -5.42571926114501490000	      0.24585803012212548000	     16.54007501591893400000	      7.58365258727068970000	      4.65034897345960730000	    -20.53681694930690300000	      7.79955592380131880000	     -0.00000000000001246136	     -0.00000000000000698676	      7.92743360627264780000	    -11.05046837385223100000	     13.15424126275006200000	    -57.53556564800051400000	     -9.56747401774361710000	     -0.00000000000000000348	      0.00000000000000207514	     -4.50202822538613480000	      2.34749773529772950000	      3.93777715694069870000
      0.19300000000000000000	      1.42353371252259620000	      0.86026933564727870000	     -0.23596995266364515000	     -4.25114465289538850000	     -5.38318402920621520000	      0.21727693868922937000	     16.34741438656811100000	      7.57334740838263180000	      4.79142778908071950000	    -20.38938468022241700000	      7.84644400895626150000	     -0.00000000000001266292	     -0.00000000000000702026	      8.12178385149998940000	    -10.99889152021298400000	     13.12932852120828800000	    -57.58095624054197300000	     -9.36915706245355830000	     -0.00000000000000000002	      0.00000000000000212111	     -4.51201413839187810000	      2.27909632442290720000	      3.99743219094854880000
      0.19400000000000001000	      1.42503749366375600000	      0.86054290329948380000	     -0.23574775862514791000	     -4.25060300373614910000	     -5.33991408681080240000	      0.18959515239001712000	     16.15394867079190200000	      7.56127395164196430000	      4.93143896838963070000	    -20.23964649618317000000	      7.89111991302660430000	     -0.00000000000001286462	     -0.00000000000000703633	      8.31513401012431430000	    -10.94627715829626000000	     13.10262863159624100000	    -57.62171919884384200000	     -9.16233553414926230000	      0.00000000000000000303	      0.00000000000000220009	     -4.52184008360300820000	      2.21059532880991010000	      4.05494793676241280000
      0.19500000000000001000	      1.42654127923515730000	      0.86081412359979848000	     -0.23553026813550126000	     -4.24998147714154670000	     -5.29590943395877730000	      0.16281267122448861000	     15.95967786859031000000	      7.54743221704868720000	      5.07038251138634080000	    -20.08760239718916600000	      7.93358363601234820000	     -0.00000000000001306645	     -0.00000000000000703496	      8.50748408214562170000	    -10.89262528810205700000	     13.07414159391392300000	    -57.65785452290612100000	     -8.94700943283073260000	      0.00000000000000000569	      0.00000000000000231209	     -4.53150606101952570000	      2.14199474845873850000	      4.11032439438228980000
      0.19600000000000001000	      1.42804506480655840000	      0.86108534390011326000	     -0.23531277764585465000	     -4.24935995054694350000	     -5.25190478110675230000	      0.13603019005896017000	     15.76540706638871600000	      7.53359048245541010000	      5.20932605438305090000	    -19.93555829819516100000	      7.97604735899809110000	     -0.00000000000001326829	     -0.00000000000000703359	      8.69983415416692910000	    -10.83897341790785300000	     13.04565455623160400000	    -57.69398984696840000000	     -8.73168333151220110000	      0.00000000000000000834	      0.00000000000000242409	     -4.54117203843604230000	      2.07339416810756650000	      4.16570085200216680000
